# xmcd
#
# Track frame offsets:
#	150
#	11253
#	24044
#	32753
#	45214
#	58029
#	69131
#	79316
#	99046
#	111629
#	123228
#	132457
#	143862
#	152554
#	164554
#	176541
#	190432
#	205771
#	215654
#	235201
#	245441
#	258454
#
# Disc length: 3737
#
# Revision: 1
# Processed by: cddbd v1.5.1PL0 Copyright (c) Steve Scherf et al.
# Submitted via: NeoAudio 9.9.9
# Normalized: r0:TDELIM( - )
#
DISCID=280e9716
DTITLE=Various Artist - Country Triple Treasures - cd2 - King of the Road
DYEAR=1900
DGENRE=Country
TTITLE0=Roger Miller - King of the road
TTITLE1=Charley Pride - Crystal chandeliers
TTITLE2=Conway Twitty - Blue is the way that feel
TTITLE3=Bobby Helms - Frauline
TTITLE4=Lee Hazelwood - These boots are made for walking
TTITLE5=Hank Locklin - Send me that pillow you dream on
TTITLE6=Jim Reeves - He'll have to go
TTITLE7=Marty Robbins - El paso
TTITLE8=Bobby Bare - 500 miles away from home
TTITLE9=Johnny Horton - The battle of New Orleans
TTITLE10=Frankie Laine - Rawhide
TTITLE11=Sonny James - Young love
TTITLE12=Roger Miller - England swings
TTITLE13=Tammy Wynette - Stand by your man
TTITLE14=Roy Drusky - Take these chains from my heart
TTITLE15=Barbara Fairchild - Crazy love
TTITLE16=Jean Shephard - Slippin' away
TTITLE17=Eddie Jones - Deep in the heart of Texas
TTITLE18=Kenny Rogers - She belives in me
TTITLE19=Barbara Mandrell - Kaw - Liga
TTITLE20=Faron Young - It's four in the morning
TTITLE21=Willie Nelson - City of New Orleans
EXTD=
EXTT0=
EXTT1=
EXTT2=
EXTT3=
EXTT4=
EXTT5=
EXTT6=
EXTT7=
EXTT8=
EXTT9=
EXTT10=
EXTT11=
EXTT12=
EXTT13=
EXTT14=
EXTT15=
EXTT16=
EXTT17=
EXTT18=
EXTT19=
EXTT20=
EXTT21=
PLAYORDER=
